<?xml version="1.0" encoding="utf-8"?>
<!-- Generator: Adobe Illustrator 21.0.0, SVG Export Plug-In . SVG Version: 6.00 Build 0)  -->
<svg version="1.1" id="d0a49112-1639-4682-9529-9d2abcda4fd6"
	 xmlns="http://www.w3.org/2000/svg" xmlns:xlink="http://www.w3.org/1999/xlink" x="0px" y="0px" viewBox="0 0 907 788"
	 style="enable-background:new 0 0 907 788;" xml:space="preserve">
<style type="text/css">
	.st0{fill:none;stroke:#64FFDA;stroke-width:4;stroke-miterlimit:10;stroke-dasharray:12.07,15.09;}
	.st1{opacity:0.2;fill:#BF292A;enable-background:new    ;}
	.st2{fill:url(#SVGID_1_);}
	.st3{fill:#FFFFFF;}
	.st4{fill:url(#SVGID_2_);}
	.st5{fill:#BF292A;}
	.st6{fill:#E0E0E0;}
	.st7{fill:#F5F5F5;}
	.st8{opacity:0.2;fill:#69F0AE;enable-background:new    ;}
	.st9{fill:#69F0AE;}
	.st10{opacity:0.2;fill:#FF6E40;enable-background:new    ;}
	.st11{fill:url(#SVGID_3_);}
	.st12{opacity:0.3;fill:#FF6E40;enable-background:new    ;}
	.st13{fill:#FF6E40;}
	.st14{fill:url(#SVGID_4_);}
	.st15{fill:url(#SVGID_5_);}
	.st16{opacity:0.2;}
</style>
<title>setup</title>
<circle class="st0" cx="423.1" cy="394" r="363"/>
<rect x="76.2" y="138.9" class="st1" width="382" height="243"/>
<linearGradient id="SVGID_1_" gradientUnits="userSpaceOnUse" x1="219.025" y1="437.23" x2="219.025" y2="686.04" gradientTransform="matrix(1 0 0 -1 0 790)">
	<stop  offset="0" style="stop-color:#808080;stop-opacity:0.25"/>
	<stop  offset="0.54" style="stop-color:#808080;stop-opacity:0.12"/>
	<stop  offset="1" style="stop-color:#808080;stop-opacity:0.1"/>
</linearGradient>
<rect y="104" class="st2" width="438" height="248.8"/>
<rect x="4.7" y="140.2" class="st3" width="427.5" height="206.8"/>
<linearGradient id="SVGID_2_" gradientUnits="userSpaceOnUse" x1="33.88" y1="554.035" x2="182.23" y2="554.035" gradientTransform="matrix(1 0 0 -1 0 790)">
	<stop  offset="0" style="stop-color:#808080;stop-opacity:0.25"/>
	<stop  offset="0.54" style="stop-color:#808080;stop-opacity:0.12"/>
	<stop  offset="1" style="stop-color:#808080;stop-opacity:0.1"/>
</linearGradient>
<rect x="33.9" y="157.7" class="st4" width="148.4" height="156.5"/>
<rect x="38.5" y="161.2" class="st5" width="140.2" height="149.5"/>
<path class="st3" d="M147.8,220.2c-1.1-8.9-2.6-17.8-6-26.1s-8.9-15.9-16.5-20.7c-2.7-1.8-5.8-2.9-9.1-3.1c-6-0.2-11.4,3.8-14.5,8.9
	c-1,1.8-1.9,3.6-2.7,5.5c-5.8,1-10.2,5.8-10.6,11.8c-16.6,7.1-24.4,26.3-17.3,42.9c4,9.3,12.1,16.3,21.9,18.9v5.6
	c-14.4,3.8-24.5,16.8-24.5,31.7v15.2h65.4v-15.2c0-14.9-10.1-27.9-24.5-31.7v-5.6c14.4-3.7,24.5-16.8,24.5-31.7c0-0.1,0-0.1,0-0.2
	l3.7,8.2c3.5,7.8,7.1,16.2,5.7,24.6C150,247.7,149.4,233.5,147.8,220.2z"/>
<rect x="4.7" y="108.6" class="st5" width="427.5" height="31.5"/>
<rect x="236" y="205" class="st6" width="162.4" height="10.5"/>
<rect x="236" y="249.4" class="st7" width="162.4" height="10.5"/>
<rect x="234.8" y="227.2" class="st1" width="95.8" height="10.5"/>
<rect x="234.8" y="271.6" class="st8" width="65.4" height="10.5"/>
<rect x="311.9" y="271.6" class="st9" width="65.4" height="10.5"/>
<rect x="667.4" y="165.7" class="st10" width="215.5" height="100.5"/>
<linearGradient id="SVGID_3_" gradientUnits="userSpaceOnUse" x1="749.04" y1="539.17" x2="749.04" y2="648.36" gradientTransform="matrix(1 0 0 -1 0 790)">
	<stop  offset="0" style="stop-color:#808080;stop-opacity:0.25"/>
	<stop  offset="0.54" style="stop-color:#808080;stop-opacity:0.12"/>
	<stop  offset="1" style="stop-color:#808080;stop-opacity:0.1"/>
</linearGradient>
<rect x="633.5" y="141.6" class="st11" width="231.1" height="109.2"/>
<rect x="642" y="144.2" class="st3" width="215.5" height="100.5"/>
<rect x="674.6" y="166.2" class="st12" width="125.7" height="11.9"/>
<rect x="674.6" y="193.5" class="st13" width="65.2" height="11.9"/>
<rect x="404.2" y="586.4" class="st1" width="502.8" height="135.3"/>
<linearGradient id="SVGID_4_" gradientUnits="userSpaceOnUse" x1="628.365" y1="89.06" x2="628.365" y2="233.07" gradientTransform="matrix(1 0 0 -1 0 790)">
	<stop  offset="0" style="stop-color:#808080;stop-opacity:0.25"/>
	<stop  offset="0.54" style="stop-color:#808080;stop-opacity:0.12"/>
	<stop  offset="1" style="stop-color:#808080;stop-opacity:0.1"/>
</linearGradient>
<rect x="373.3" y="556.9" class="st14" width="510.1" height="144"/>
<rect x="377" y="561.8" class="st3" width="502.8" height="134.3"/>
<linearGradient id="SVGID_5_" gradientUnits="userSpaceOnUse" x1="499.83" y1="110.76" x2="499.83" y2="211.36" gradientTransform="matrix(1 0 0 -1 0 790)">
	<stop  offset="0" style="stop-color:#808080;stop-opacity:0.25"/>
	<stop  offset="0.54" style="stop-color:#808080;stop-opacity:0.12"/>
	<stop  offset="1" style="stop-color:#808080;stop-opacity:0.1"/>
</linearGradient>
<circle class="st15" cx="499.8" cy="628.9" r="50.3"/>
<circle class="st5" cx="499.8" cy="628.9" r="44.7"/>
<g class="st16">
	<rect x="587.8" y="595.4" class="st5" width="79.6" height="14"/>
	<rect x="587.8" y="622" class="st5" width="219.3" height="14"/>
	<rect x="587.8" y="648.5" class="st5" width="219.3" height="14"/>
</g>
<polygon class="st3" points="529.2,611 519.3,603.5 493.5,637.4 479,626.4 471.5,636.2 490.9,651 491,650.9 495.9,654.7 "/>
</svg>
