<?xml version="1.0" encoding="utf-8"?>
<!-- Generator: Adobe Illustrator 21.0.0, SVG Export Plug-In . SVG Version: 6.00 Build 0)  -->
<svg version="1.1" id="effd0595-b14c-4c7e-b56f-e463e9379f7d"
	 xmlns="http://www.w3.org/2000/svg" xmlns:xlink="http://www.w3.org/1999/xlink" x="0px" y="0px" viewBox="0 0 930 808"
	 style="enable-background:new 0 0 930 808;" xml:space="preserve">
<style type="text/css">
	.st0{fill:#F1F1F1;}
	.st1{fill:#BF292A;}
	.st2{fill:#2F2E41;}
	.st3{fill:#9F616A;}
	.st4{fill:#A0616A;}
	.st5{fill:none;stroke:#3F3D56;stroke-width:2;stroke-miterlimit:10;}
	.st6{fill:#3F3D56;}
	.st7{fill:#FF6584;}
	.st8{opacity:0.3;fill:#BF292A;enable-background:new    ;}
</style>
<title>process</title>
<circle class="st0" cx="748.2" cy="59.5" r="14.8"/>
<circle class="st0" cx="661.2" cy="630.5" r="14.8"/>
<circle class="st0" cx="294.2" cy="201.5" r="14.8"/>
<ellipse class="st0" cx="157" cy="775" rx="157" ry="23"/>
<path class="st1" d="M239.9,609l39.4-12.3c-2.2-16.4-7.2-32.3-14.7-47L225.2,562C234.5,575.9,239.6,592.2,239.9,609z"/>
<circle class="st2" cx="145.2" cy="276.4" r="36.8"/>
<polygon class="st3" points="105.5,737.5 98.5,767.5 115.5,767.5 122.5,733.5 "/>
<polygon class="st3" points="187.5,737.5 187.5,765.5 204.5,767.5 204.5,737.5 "/>
<path class="st3" d="M100.5,419.5c0,0,2,43,4,46s20,46,20,46l9-28c0,0-14-23-12-36s0.7-29,0.7-29L100.5,419.5z"/>
<circle class="st3" cx="157.5" cy="287.5" r="28"/>
<path class="st3" d="M134.5,290.5c0,0,1,40-6,46s40,1,40,1s-10-28-2-34S134.5,290.5,134.5,290.5z"/>
<path class="st2" d="M171.5,335.5c0,0-6-11-14-10s-34,3-35,5s-4,9-6,11s-17,5-18,17s36,85,36,85s-5,17-4,21s-5,16-4,21s-15,35-7,74
	v63c0,0-27,109-19,117s35,3,40,0s26-154,26-154l10-51l1,112c0,0-2,94,5,97s34,4,36-2c1.6-4.7,9.2-129.2,12.5-183.8
	c1.1-18.8-0.3-37.7-4.4-56.2c-4.2-18.9-10.2-41.1-17.1-50.1c-13-17-21-71-21-71l17-31c0,0-10-10-16-10S171.5,335.5,171.5,335.5z"/>
<path class="st2" d="M104.5,351.5l-5.3,3.6c0,0-3.7,64.4-0.7,68.4s23.9,2,25.4-1.5S104.5,351.5,104.5,351.5z"/>
<path class="st3" d="M186.5,411.5c0,0,1,42,7,54s28,62,28,62s-1.3,55,9.9,41.5s4.1-45.5,4.1-45.5l-19-74c0,0-10-33-9-43
	S186.5,411.5,186.5,411.5z"/>
<path class="st2" d="M204.5,749.3c0,0,1-0.8,4,2.2s11,7,10,18s-7,13-7,13v-3h-3v5c0,0-5,16-28,6c0,0-1-8,0-13s1-29,4-28s11,2,13,6
	S205.5,758.1,204.5,749.3z"/>
<path class="st2" d="M101.5,750.3c0,0-1-0.8-4,2.2s-11,7-10,18s7,13,7,13v-3h3v5c0,0,5,16,28,6c0,0,1-8,0-13s-1-29-4-28s-11,2-13,6
	S100.5,759.1,101.5,750.3z"/>
<path class="st2" d="M191.5,346.5l14,3c0,0,0,22,4,31s11,30,8,31s-31,15-33,7S177.5,346.5,191.5,346.5z"/>
<circle class="st2" cx="105.3" cy="227.9" r="36.8"/>
<path class="st2" d="M73.6,258.4c16.5,11.9,39.5,8.2,51.4-8.3c2.4-3.4,4.3-7.1,5.4-11.1c-2.5,20.2-20.9,34.5-41.1,31.9
	c-20.2-2.5-34.5-20.9-31.9-41.1c0.3-2,0.7-4,1.2-5.9C57,237.3,62.7,250.5,73.6,258.4z"/>
<circle class="st2" cx="135.4" cy="282.5" r="27"/>
<ellipse class="st2" cx="158.1" cy="272.4" rx="23.9" ry="18.7"/>
<ellipse class="st4" cx="164.5" cy="291.5" rx="4.5" ry="8"/>
<rect x="385.7" y="46.9" transform="matrix(0.2876 -0.9578 0.9578 0.2876 126.9769 798.4888)" class="st0" width="429" height="534"/>
<line class="st5" x1="611.2" y1="151.9" x2="732.3" y2="200.9"/>
<polygon class="st6" points="614.2,162 616.1,161.1 611.9,152.2 621.1,148.7 620.4,146.8 609.2,151.1 "/>
<polygon class="st6" points="723.1,206 722.4,204.1 731.6,200.6 727.4,191.6 729.2,190.8 734.3,201.7 "/>
<circle class="st6" cx="671.7" cy="176.4" r="11"/>
<line class="st5" x1="601.9" y1="491.4" x2="713.5" y2="423.4"/>
<polygon class="st6" points="611.8,494.9 612.3,492.9 602.6,491 605.3,481.5 603.3,480.9 600.1,492.5 "/>
<polygon class="st6" points="712.1,433.8 710.2,433.3 712.9,423.8 703.2,421.8 703.6,419.9 715.4,422.3 "/>
<circle class="st6" cx="657.7" cy="457.4" r="11"/>
<line class="st5" x1="461.7" y1="276" x2="461.8" y2="406.7"/>
<polygon class="st6" points="453.5,282.7 455,284 461.7,276.8 468.4,284 469.9,282.7 461.7,273.9 "/>
<polygon class="st6" points="453.6,400.1 455,398.7 461.8,405.9 468.5,398.7 469.9,400.1 461.8,408.9 "/>
<circle class="st6" cx="461.7" cy="341.4" r="11"/>
<rect x="369" y="10" class="st6" width="182" height="226"/>
<path class="st7" d="M448.6,94.1h-41.3c-2.8-16.3-2.8-33,0-49.2h41.3C444,61,444,78,448.6,94.1z"/>
<path class="st1" d="M471.4,119.1h41.3c2.8-16.3,2.8-33,0-49.2h-41.3C476,86,476,103,471.4,119.1z"/>
<path class="st1" d="M432.4,201.1h41.3c2.8-16.3,2.8-33,0-49.2h-41.3C437,168,437,185,432.4,201.1z"/>
<rect x="748" y="225" class="st6" width="182" height="226"/>
<rect x="774" y="273" class="st1" width="130" height="6"/>
<rect x="774" y="294" class="st1" width="130" height="6"/>
<rect x="774" y="315" class="st1" width="130" height="6"/>
<rect x="774" y="336" class="st1" width="130" height="6"/>
<rect x="774" y="357" class="st1" width="130" height="6"/>
<rect x="805" y="379" class="st1" width="68" height="24"/>
<rect x="385" y="457" class="st6" width="182" height="226"/>
<rect x="411.3" y="582.8" class="st1" width="130" height="6"/>
<rect x="411.3" y="603.8" class="st1" width="130" height="6"/>
<rect x="411.3" y="624.8" class="st1" width="130" height="6"/>
<rect x="411.3" y="645.8" class="st1" width="130" height="6"/>
<path class="st8" d="M451.1,537.4h-41.3c-2.8-16.3-2.8-33,0-49.2h41.3C446.5,504.3,446.5,521.4,451.1,537.4z"/>
<rect x="468.3" y="492.8" class="st8" width="76" height="5"/>
<rect x="468.3" y="510.8" class="st8" width="76" height="5"/>
<rect x="468.3" y="528.8" class="st8" width="76" height="5"/>
<rect x="468.3" y="546.8" class="st8" width="76" height="5"/>
</svg>
