<?xml version="1.0" encoding="utf-8"?>
<!-- Generator: Adobe Illustrator 21.0.0, SVG Export Plug-In . SVG Version: 6.00 Build 0)  -->
<svg version="1.1" id="_x38_8ce59e9-c4b8-4d1d-9d7a-ce0190159aa8"
	 xmlns="http://www.w3.org/2000/svg" xmlns:xlink="http://www.w3.org/1999/xlink" x="0px" y="0px" viewBox="0 0 781.4 494.1"
	 style="enable-background:new 0 0 781.4 494.1;" xml:space="preserve">
<style type="text/css">
	.st0{opacity:0.5;}
	.st1{fill:url(#SVGID_1_);}
	.st2{fill:#F5F5F5;}
	.st3{fill:#BF292A;}
	.st4{fill:#333333;}
	.st5{opacity:0.1;enable-background:new    ;}
	.st6{fill:#BE7C5E;}
	.st7{fill:url(#SVGID_2_);}
	.st8{fill:#F55F44;}
	.st9{fill:#FDA57D;}
	.st10{fill:url(#SVGID_3_);}
	.st11{fill:url(#SVGID_4_);}
	.st12{fill:#72351C;}
	.st13{fill:url(#SVGID_5_);}
	.st14{fill:#FDB797;}
	.st15{fill:url(#SVGID_6_);}
	.st16{fill:none;stroke:#333333;stroke-width:2;stroke-miterlimit:10;}
	.st17{fill:#858585;}
	.st18{fill:none;stroke:#333333;stroke-width:2;stroke-linecap:round;stroke-linejoin:round;}
</style>
<title>team</title>
<g>
	<g class="st0">
		
			<linearGradient id="SVGID_1_" gradientUnits="userSpaceOnUse" x1="116.72" y1="526.22" x2="116.72" y2="758" gradientTransform="matrix(1 0 0 -1 0 758)">
			<stop  offset="0" style="stop-color:#808080;stop-opacity:0.25"/>
			<stop  offset="0.54" style="stop-color:#808080;stop-opacity:0.12"/>
			<stop  offset="1" style="stop-color:#808080;stop-opacity:0.1"/>
		</linearGradient>
		<circle class="st1" cx="116.7" cy="115.9" r="115.9"/>
	</g>
	<circle class="st2" cx="116.7" cy="115.3" r="113.4"/>
	<path class="st3" d="M117,229c22.2,0,43.9-6.5,62.4-18.7c-4.2-22.8-20.1-24.1-20.1-24.1H71.6c0,0-15,1.2-19.7,22.3
		C71,221.9,93.7,229.1,117,229z"/>
	<circle class="st4" cx="115.8" cy="112.8" r="50.3"/>
	<path class="st5" d="M98.2,158.4h35.1l0,0v28.1c0,9.7-7.9,17.5-17.5,17.5h0l0,0c-9.7,0-17.5-7.9-17.5-17.5l0,0L98.2,158.4
		L98.2,158.4z"/>
	<path class="st6" d="M101.5,157.1h28.4c1.9,0,3.4,1.5,3.4,3.3v0v24.7c0,9.7-7.9,17.5-17.5,17.5l0,0c-9.7,0-17.5-7.9-17.5-17.5l0,0
		v-24.7C98.2,158.6,99.7,157.1,101.5,157.1z"/>
	<path class="st5" d="M98.3,171.6c11.3,4.2,23.8,4.3,35.1,0.1v-4.3H98.3V171.6z"/>
	<circle class="st6" cx="115.8" cy="123.7" r="50.3"/>
	<path class="st4" d="M85.4,102.9c0.6-2.2,1.3-4.6,3.3-5.7c1.5-0.9,3.5-0.8,5.2-0.7c13.9,0.8,27.7-2.4,41.2-5.7
		c7.7-1.9,16-4.2,21-10.4s-1.5-25.8-9.1-28.1c-5-1.5-10.8,1.3-15.5-0.9c-2.1-1-3.7-2.9-5.5-4.3c-3.7-3-8.5-4.2-13.2-5.3
		c-5.4-1.3-11.3-2.7-16.4-0.5c-4,1.7-6.9,5.2-10.7,7.3c-7.2,4-16,2.1-24.3,2.1c-2.8,0-6.1,0.6-7.2,3.1c-0.8,1.7-0.1,3.7-0.1,5.6
		c0.2,6-4.7,10.7-8.9,15s-8.1,10.5-5.4,15.9c1,2.1,2.8,3.6,3.9,5.6c1.8,3.5,0.9,7.8,1.5,11.7c0.7,3,1.8,5.8,3.3,8.4
		c3.1,6,18.5,38.3,25.7,30.1c3.4-4,4-15.6,5.4-20.8C81.4,117.8,83.4,110.3,85.4,102.9z"/>
	<ellipse class="st6" cx="80.1" cy="121.9" rx="4.7" ry="8.8"/>
</g>
<g>
	<g class="st0">
		
			<linearGradient id="SVGID_2_" gradientUnits="userSpaceOnUse" x1="385.08" y1="263.89" x2="385.08" y2="495.67" gradientTransform="matrix(1 0 0 -1 0 758)">
			<stop  offset="0" style="stop-color:#808080;stop-opacity:0.25"/>
			<stop  offset="0.54" style="stop-color:#808080;stop-opacity:0.12"/>
			<stop  offset="1" style="stop-color:#808080;stop-opacity:0.1"/>
		</linearGradient>
		<circle class="st7" cx="385.1" cy="378.2" r="115.9"/>
	</g>
	<circle class="st2" cx="385.3" cy="377.5" r="113.4"/>
	<path class="st3" d="M385.4,491.4c22.2,0,43.8-6.5,62.3-18.7c-4.2-22.8-20.1-24.2-20.1-24.2h-87.7c0,0-15,1.2-19.7,22.3
		C339.3,484.2,362.1,491.4,385.4,491.4z"/>
	<circle class="st8" cx="384.2" cy="375.1" r="54.8"/>
	<path class="st5" d="M366.5,420.7h35.1l0,0v28.1c0,9.7-7.9,17.5-17.5,17.5l0,0l0,0c-9.7,0-17.5-7.9-17.5-17.5l0,0L366.5,420.7
		L366.5,420.7z"/>
	<path class="st9" d="M369.9,419.4h28.4c1.9,0,3.4,1.5,3.4,3.4l0,0v24.7c0,9.7-7.9,17.5-17.5,17.5l0,0l0,0
		c-9.7,0-17.5-7.9-17.5-17.5l0,0v-24.7C366.5,420.9,368,419.4,369.9,419.4L369.9,419.4L369.9,419.4z"/>
	<path class="st5" d="M366.6,433.9c11.3,4.2,23.8,4.3,35.1,0.1v-4.3h-35.1V433.9z"/>
	<circle class="st9" cx="384.2" cy="386" r="50.3"/>
	<circle class="st8" cx="384.1" cy="319.4" r="20.2"/>
	<circle class="st8" cx="384.1" cy="299.5" r="13.3"/>
	<path class="st8" d="M375.4,330.5c-9.9-4.4-14.5-15.8-10.5-25.9c-0.1,0.3-0.3,0.6-0.4,0.9c-4.6,10.2,0,22.2,10.2,26.8
		s22.2,0,26.8-10.2c0.1-0.3,0.3-0.6,0.4-0.9C396.8,330.8,385.2,334.9,375.4,330.5z"/>
	<path class="st5" d="M348.4,340.3c0,0,21.2,43,81,18l-13.9-21.8l-24.7-8.9L348.4,340.3z"/>
	<path class="st8" d="M348.4,339.6c0,0,21.2,43,81,18l-13.9-21.8l-24.7-8.9L348.4,339.6z"/>
	<path class="st4" d="M364.7,324c13-1,26.1-1,39.2,0C403.9,324,375,326.7,364.7,324z"/>
	<path class="st8" d="M387.2,285.4c-1,0-2,0-3,0.2h0.8c7.3,0.2,13.1,6.4,12.8,13.7c-0.2,6.2-4.7,11.5-10.8,12.6
		c7.3,0.1,13.3-5.8,13.4-13.2C400.4,291.4,394.5,285.4,387.2,285.4L387.2,285.4z"/>
	<ellipse class="st9" cx="333.9" cy="386" rx="4.7" ry="8.8"/>
	<ellipse class="st9" cx="434.5" cy="386" rx="4.7" ry="8.8"/>
	<polygon class="st8" points="345.2,340.9 355,335.8 357.2,343.9 351.2,348 	"/>
</g>
<g>
	<g class="st0">
		
			<linearGradient id="SVGID_3_" gradientUnits="userSpaceOnUse" x1="384.97" y1="526.22" x2="384.97" y2="758" gradientTransform="matrix(1 0 0 -1 0 758)">
			<stop  offset="0" style="stop-color:#808080;stop-opacity:0.25"/>
			<stop  offset="0.54" style="stop-color:#808080;stop-opacity:0.12"/>
			<stop  offset="1" style="stop-color:#808080;stop-opacity:0.1"/>
		</linearGradient>
		<circle class="st10" cx="385" cy="115.9" r="115.9"/>
	</g>
	<circle class="st2" cx="385" cy="115.3" r="113.4"/>
	<path class="st4" d="M340.7,116.3c0,0-12.9,63.4-19.9,59.8c0,0,67.7,58.5,127.5,0c0,0-10.5-44.6-25.7-59.8H340.7z"/>
	<path class="st3" d="M385.3,229c22.2,0,43.9-6.5,62.4-18.7c-4.2-22.8-20.1-24.1-20.1-24.1h-87.7c0,0-15,1.2-19.7,22.3
		C339.2,221.9,362,229.1,385.3,229z"/>
	<circle class="st4" cx="384.1" cy="112.8" r="50.3"/>
	<path class="st5" d="M366.4,158.4h35.1l0,0v28.1c0,9.7-7.8,17.5-17.5,17.5l0,0c-9.7,0-17.5-7.9-17.5-17.5L366.4,158.4L366.4,158.4z
		"/>
	<path class="st6" d="M369.8,157.1h28.4c1.9,0,3.4,1.5,3.4,3.3v0v24.7c0,9.7-7.8,17.5-17.5,17.5l0,0c-9.7,0-17.5-7.9-17.5-17.5v0
		v-24.7C366.5,158.6,367.9,157.1,369.8,157.1z"/>
	<path class="st5" d="M366.5,171.6c11.3,4.2,23.8,4.3,35.1,0.1v-4.3h-35.1V171.6z"/>
	<circle class="st6" cx="384.1" cy="123.7" r="50.3"/>
	<path class="st4" d="M336,104.6h95.9c0,0-8.2-38.7-44.4-36.3S336,104.6,336,104.6z"/>
	<ellipse class="st6" cx="334.8" cy="121.5" rx="4.7" ry="8.8"/>
	<ellipse class="st6" cx="433.1" cy="121.5" rx="4.7" ry="8.8"/>
	<path class="st5" d="M336,105.9h95.9c0,0-8.2-38.7-44.4-36.3S336,105.9,336,105.9z"/>
</g>
<g>
	<g class="st0">
		
			<linearGradient id="SVGID_4_" gradientUnits="userSpaceOnUse" x1="661.23" y1="526.22" x2="661.23" y2="758" gradientTransform="matrix(1 0 0 -1 0 758)">
			<stop  offset="0" style="stop-color:#808080;stop-opacity:0.25"/>
			<stop  offset="0.54" style="stop-color:#808080;stop-opacity:0.12"/>
			<stop  offset="1" style="stop-color:#808080;stop-opacity:0.1"/>
		</linearGradient>
		<circle class="st11" cx="661.2" cy="115.9" r="115.9"/>
	</g>
	<circle class="st2" cx="661.5" cy="115.1" r="113.4"/>
	<path class="st3" d="M661.6,229c22.2,0,43.9-6.5,62.4-18.7c-4.2-22.9-20.1-24.2-20.1-24.2h-87.7c0,0-15,1.2-19.7,22.3
		C615.5,221.9,638.2,229.1,661.6,229z"/>
	<circle class="st12" cx="660.4" cy="112.8" r="54.8"/>
	<path class="st5" d="M642.7,158.4h35.1l0,0v28.1c0,9.7-7.8,17.6-17.5,17.6c0,0,0,0,0,0l0,0c-9.7,0-17.5-7.9-17.5-17.5L642.7,158.4
		L642.7,158.4z"/>
	<path class="st9" d="M646,157.1h28.4c1.9,0,3.3,1.5,3.3,3.4v24.7c0,9.7-7.9,17.5-17.5,17.5l0,0c-9.7,0-17.5-7.9-17.5-17.5v-24.7
		C642.7,158.6,644.2,157.1,646,157.1L646,157.1z"/>
	<path class="st5" d="M642.7,171.6c11.3,4.2,23.8,4.3,35.1,0.1v-4.3h-35.1V171.6z"/>
	<circle class="st9" cx="660.4" cy="123.7" r="50.3"/>
	<path class="st5" d="M624.5,77.9c0,0,21.2,43,81,18l-13.9-21.8L667,65.2L624.5,77.9z"/>
	<path class="st12" d="M624.5,77.3c0,0,21.2,43,81,18l-13.9-21.8L667,64.6L624.5,77.3z"/>
	<path class="st12" d="M624.3,74.4c1.4-4.4,3.9-8.4,7.2-11.7c9.9-9.8,26.1-11.8,34.4-23c1.8,3.1,0.7,7.1-2.4,8.9
		c-0.2,0.1-0.4,0.2-0.6,0.3c8-0.1,17.2-0.8,21.7-7.3c2.3,5.3,1.3,11.4-2.5,15.7c7.1,0.3,14.6,5.1,15.1,12.2
		c0.3,4.7-2.6,9.1-6.5,11.9s-8.5,3.9-13.1,4.9C664.2,89.2,615.6,101.6,624.3,74.4z"/>
	<path class="st12" d="M710.7,124.1h-1.3l-25.9,23.1c-25-11.7-43.3,0-43.3,0l-27.2-22.1l-2.7,0.3c0.8,27.8,23.9,49.6,51.7,48.9
		C688.9,173.5,710.6,151.3,710.7,124.1L710.7,124.1z M660.3,156.1c-9.8,0-17.7-2-17.7-4.4s7.9-4.4,17.7-4.4s17.7,2,17.7,4.4
		S670.1,156.1,660.3,156.1L660.3,156.1z"/>
	<ellipse class="st9" cx="610" cy="123.6" rx="4.7" ry="8.8"/>
	<ellipse class="st9" cx="710.6" cy="123.6" rx="4.7" ry="8.8"/>
</g>
<g>
	<g class="st0">
		
			<linearGradient id="SVGID_5_" gradientUnits="userSpaceOnUse" x1="115.89" y1="263.89" x2="115.89" y2="495.67" gradientTransform="matrix(1 0 0 -1 0 758)">
			<stop  offset="0" style="stop-color:#808080;stop-opacity:0.25"/>
			<stop  offset="0.54" style="stop-color:#808080;stop-opacity:0.12"/>
			<stop  offset="1" style="stop-color:#808080;stop-opacity:0.1"/>
		</linearGradient>
		<circle class="st13" cx="115.9" cy="378.2" r="115.9"/>
	</g>
	<circle class="st2" cx="116.1" cy="377.5" r="113.4"/>
	<path class="st3" d="M116.2,491.4c22.2,0,43.8-6.5,62.4-18.7c-4.2-22.8-20.1-24.1-20.1-24.1H70.7c0,0-15,1.2-19.7,22.2
		C70.1,484.2,92.9,491.4,116.2,491.4z"/>
	<circle class="st4" cx="115" cy="375.1" r="54.8"/>
	<path class="st5" d="M97.3,420.7h35.1l0,0v28.1c0,9.7-7.9,17.5-17.5,17.5h0l0,0c-9.7,0-17.5-7.9-17.5-17.5l0,0L97.3,420.7
		L97.3,420.7z"/>
	<path class="st14" d="M100.7,419.4h28.4c1.9,0,3.4,1.5,3.4,3.4l0,0v24.7c0,9.7-7.9,17.5-17.5,17.5h0l0,0c-9.7,0-17.5-7.8-17.6-17.5
		c0,0,0,0,0,0v-24.8C97.3,420.9,98.8,419.4,100.7,419.4C100.7,419.4,100.7,419.4,100.7,419.4L100.7,419.4z"/>
	<path class="st5" d="M97.4,433.9c11.3,4.2,23.8,4.3,35.1,0.1v-4.3H97.4V433.9z"/>
	<circle class="st14" cx="115" cy="386" r="50.3"/>
	<path class="st5" d="M79.2,340.3c0,0,21.2,43,81,18l-13.9-21.8l-24.7-8.9L79.2,340.3z"/>
	<path class="st4" d="M79.2,339.6c0,0,21.2,43,81,18l-13.9-21.8l-24.7-8.9L79.2,339.6z"/>
	<path class="st4" d="M79,336.7c1.4-4.4,3.9-8.4,7.2-11.7c9.9-9.8,26.1-11.8,34.4-23c1.8,3.1,0.7,7.1-2.4,8.9
		c-0.2,0.1-0.4,0.2-0.6,0.3c8,0,17.2-0.8,21.7-7.3c2.3,5.3,1.3,11.4-2.5,15.7c7.1,0.3,14.6,5.1,15.1,12.2c0.3,4.7-2.6,9.1-6.5,11.9
		s-8.5,3.9-13.1,5C118.8,351.6,70.3,364,79,336.7z"/>
	<ellipse class="st14" cx="64.7" cy="386" rx="4.7" ry="8.8"/>
	<ellipse class="st14" cx="165.3" cy="386" rx="4.7" ry="8.8"/>
</g>
<g>
	<g class="st0">
		
			<linearGradient id="SVGID_6_" gradientUnits="userSpaceOnUse" x1="665.55" y1="263.89" x2="665.55" y2="495.67" gradientTransform="matrix(1 0 0 -1 0 758)">
			<stop  offset="0" style="stop-color:#808080;stop-opacity:0.25"/>
			<stop  offset="0.54" style="stop-color:#808080;stop-opacity:0.12"/>
			<stop  offset="1" style="stop-color:#808080;stop-opacity:0.1"/>
		</linearGradient>
		<circle class="st15" cx="665.5" cy="378.2" r="115.9"/>
	</g>
	<circle class="st2" cx="665.5" cy="377.6" r="113.4"/>
	<path class="st3" d="M665.9,491.4c22.2,0,43.9-6.5,62.4-18.7c-4.2-22.8-20.1-24.2-20.1-24.2h-87.7c0,0-15,1.2-19.7,22.3
		C619.8,484.2,642.6,491.4,665.9,491.4z"/>
	<path class="st5" d="M647,420.7h35.1l0,0v28.1c0,9.7-7.9,17.5-17.5,17.5l0,0c-9.7,0-17.5-7.8-17.6-17.5c0,0,0,0,0,0V420.7
		L647,420.7z"/>
	<path class="st14" d="M650.3,419.4h28.4c1.9,0,3.3,1.5,3.3,3.4v24.7c0,9.7-7.9,17.5-17.5,17.5l0,0c-9.7,0-17.5-7.8-17.5-17.5
		c0,0,0,0,0,0v-24.7C647,420.9,648.5,419.4,650.3,419.4L650.3,419.4z"/>
	<path class="st5" d="M647.1,434c11.3,4.2,23.8,4.3,35.1,0.1v-4.3h-35.1V434z"/>
	<circle class="st14" cx="664.7" cy="386" r="50.3"/>
	<ellipse class="st14" cx="615.4" cy="383.9" rx="4.7" ry="8.8"/>
	<ellipse class="st14" cx="713.7" cy="383.9" rx="4.7" ry="8.8"/>
	<path class="st16" d="M638.4,386.3h12.8c2.4,0,4.3,1.9,4.3,4.4v2.1c0,2.4-1.9,4.4-4.3,4.4h-12.8c-2.4,0-4.3-1.9-4.3-4.4v-2.1
		C634,388.2,636,386.3,638.4,386.3z"/>
	<path class="st16" d="M691,397h-12.8c-2.4,0-4.3-1.9-4.3-4.4v-2.1c0-2.4,1.9-4.4,4.3-4.4H691c2.4,0,4.3,1.9,4.3,4.4v2.1
		C695.3,395.1,693.4,397,691,397z"/>
	<path class="st16" d="M654.7,387.3c0,0,6.8-3.7,19.5,0"/>
	<path class="st17" d="M699.4,349.6l12.3,28.7C711.8,378.2,726.9,359.2,699.4,349.6z"/>
	<line class="st18" x1="695.3" y1="391.6" x2="713.7" y2="375.2"/>
	<path class="st17" d="M629.9,349.6l-12.3,28.7C617.6,378.2,602.5,359.2,629.9,349.6z"/>
	<line class="st18" x1="634" y1="391.6" x2="615.4" y2="375.2"/>
</g>
</svg>
