<svg id="Layer_1" data-name="Layer 1" xmlns="http://www.w3.org/2000/svg" viewBox="0 0 1992.97 256"><defs><style>.cls-1{fill:#ff3638;}.cls-2{fill:#fff;stroke:#fff;stroke-miterlimit:10;stroke-width:1.5px;}</style></defs><title>ads5 copy</title><circle class="cls-1" cx="128.33" cy="128.34" r="128.34"/><path class="cls-2" d="M128.33,227.76A99.42,99.42,0,0,1,58,58a99.42,99.42,0,1,1,140.6,140.6A98.77,98.77,0,0,1,128.33,227.76Zm0-192.51a93.09,93.09,0,1,0,93.09,93.09A93.2,93.2,0,0,0,128.33,35.25Z"/><path class="cls-2" d="M72.18,175.62a3.16,3.16,0,0,1-2.67-4.86l56.15-88.23a3.16,3.16,0,0,1,5.34,0l56.15,88.23a3.16,3.16,0,1,1-5.34,3.4l-53.48-84-53.48,84A3.16,3.16,0,0,1,72.18,175.62Z"/><path class="cls-1" d="M412.88,94.33h26.26V205H413.33L412,188.84c-6.29,13-23.57,19.3-35.92,19.53-32.77.22-57-20-57-58.81,0-38.16,25.36-58.14,57.69-57.92,14.82,0,29,7,35.24,18Zm-66.45,55.22c0,21.1,14.59,33.67,32.78,33.67,43.1,0,43.1-67.12,0-67.12C361,116.11,346.43,128.45,346.43,149.55Z"/><path class="cls-1" d="M577.17,48.09V205H551.59l-1.79-15.26c-8.53,13.24-22.22,17.73-35.69,17.73-32.55,0-57-21.55-57-57.92,0-38.16,24-57.92,56.34-57.92,11.67,0,29.86,6.29,36.37,17.73V48.09Zm-92.7,101.46c0,19.3,13.91,32.55,31.42,32.55,17.28,0,32.1-12.57,32.1-32.55,0-19.31-14.82-32.32-32.1-32.32C498.39,117.23,484.47,129.58,484.47,149.55Z"/><path class="cls-1" d="M673.23,123.74c-7.86-7.41-16.84-9.87-27.39-9.87-13,0-20.2,4-20.2,11,0,7.18,6.51,11.22,20.65,12.12,20.88,1.35,47.36,6.06,47.36,35.47,0,19.53-15.94,36.36-47.59,36.36-17.51,0-35-2.92-51.18-19.75l13.47-19.53c7.85,8.75,25.82,15.26,38.16,15.48,10.33.23,20-5.16,20-13.24,0-7.63-6.29-10.77-22-11.67-20.88-1.57-45.8-9.2-45.8-34.35,0-25.59,26.49-34.57,46.69-34.57,17.28,0,30.3,3.37,43.1,14.59Z"/><path d="M829,205H816.88l-18-48.49-13.47-43.1-13.92,43.33-18,48.26H741.46L701.95,94.11h12.12l33.45,98.09,33.9-98.09h7.85l33.67,98.09,33.22-98.09h12.12Z"/><path d="M879.94,149.55c0-33.23,25.14-57.24,56.34-57.24s59,19.08,54.77,62.4H891.16c2.25,26,22.22,41.08,45.12,41.08,14.59,0,31.65-5.83,40-16.84l7.86,6.29c-10.78,14.14-30.08,21.32-47.82,21.32C905.08,206.57,879.94,184.8,879.94,149.55Zm101.23-4.49c-.22-27.39-18.18-42.65-44.89-42.65-22.9,0-42.65,15.49-45.12,42.65Z"/><path d="M1030.32,47.86v70.48c9-18,26.94-26,46-26,31,0,55.66,20.65,55.66,57.24,0,36.81-24.47,57.24-55.44,57.24-18.85,0-37-9.43-46.24-26.26V205h-10.77V47.86Zm.23,101.46c0,27.61,19.3,46.69,45.34,46.69,24.92,0,45.34-15.71,45.34-46.47,0-31.21-20.43-46.69-45.34-46.69C1050.3,102.86,1030.54,121.72,1030.54,149.33Z"/><path d="M1235,114.31c-11.22-9.87-22.23-11.67-34.57-11.67-17.29-.23-33.9,6.28-33.45,20.43.45,14.81,19.75,17.74,33.67,20.2,19.75,3.37,46.92,6.74,45.8,32.55-.68,24.47-26,31-45.57,31s-38.83-7.41-48.49-22.22l8.08-7.18c9.2,13.24,25.82,18.86,40.63,18.86,13.47,0,33.9-3.59,34.57-21.1.45-15.93-18-19.08-36.14-22-21.55-3.59-42.87-7.63-43.1-29.86-.22-21.77,21.55-31.2,44-31,16.16,0,30.3,4.49,41.3,14.81Z"/><path d="M1264.63,149.55c0-33.23,25.14-57.24,56.34-57.24s59,19.08,54.77,62.4h-99.89c2.25,26,22.23,41.08,45.12,41.08,14.59,0,31.65-5.83,40-16.84l7.86,6.29c-10.78,14.14-30.08,21.32-47.82,21.32C1289.78,206.57,1264.63,184.8,1264.63,149.55Zm101.23-4.49c-.22-27.39-18.18-42.65-44.89-42.65-22.89,0-42.65,15.49-45.12,42.65Z"/><path d="M1414.57,94.11l.45,19.75c7-15,22.67-20.88,36.82-20.88a43.26,43.26,0,0,1,23.79,6.51l-4.94,9a35.65,35.65,0,0,0-18.85-5.16,36.84,36.84,0,0,0-36.59,37V205h-11V94.11Z"/><path d="M1488.63,94.11h12.12l40.41,98.09,40.41-98.09h12.12L1547.21,205h-12.12Z"/><path d="M1626.44,58c0,11.67-17.73,11.67-17.73,0S1626.44,46.29,1626.44,58Zm-14.59,35.69V205h11V93.66Z"/><path d="M1745.18,189.51a56.71,56.71,0,0,1-40.4,16.61c-31.2,0-57-21.55-57-56.57s24.92-56.57,57-56.57a57.66,57.66,0,0,1,40.4,16.61l-7.18,7c-9-9-21.32-13.24-33.22-13.24-25.14,0-46.24,16.39-46.24,46.24s21.1,46.24,46.24,46.24a47,47,0,0,0,33-13.69Z"/><path d="M1765.81,149.55c0-33.23,25.14-57.24,56.34-57.24s59,19.08,54.77,62.4H1777c2.25,26,22.22,41.08,45.12,41.08,14.59,0,31.65-5.83,40-16.84l7.86,6.29c-10.78,14.14-30.08,21.32-47.82,21.32C1791,206.57,1765.81,184.8,1765.81,149.55ZM1867,145.06c-.22-27.39-18.18-42.65-44.89-42.65-22.9,0-42.65,15.49-45.12,42.65Z"/><path d="M1981.52,114.31c-11.22-9.87-22.23-11.67-34.57-11.67-17.28-.23-33.89,6.28-33.44,20.43.45,14.81,19.75,17.74,33.67,20.2,19.75,3.37,46.92,6.74,45.8,32.55-.68,24.47-26,31-45.57,31s-38.83-7.41-48.49-22.22l8.08-7.18c9.2,13.24,25.82,18.86,40.63,18.86,13.47,0,33.9-3.59,34.57-21.1.45-15.93-18-19.08-36.14-22-21.55-3.59-42.87-7.63-43.1-29.86-.22-21.77,21.55-31.2,44-31,16.17,0,30.31,4.49,41.3,14.81Z"/></svg>