<svg id="Layer_1" data-name="Layer 1" xmlns="http://www.w3.org/2000/svg" viewBox="0 0 15.97 16"><defs><style>.cls-1{fill:#ff3638;}.cls-2{fill:#fff;}</style></defs><title>ads-icon</title><circle class="cls-1" cx="7.99" cy="8.01" r="7.99"/><path class="cls-2" d="M8,14.2A6.19,6.19,0,0,1,3.61,3.64a6.19,6.19,0,1,1,8.75,8.75A6.15,6.15,0,0,1,8,14.2Zm0-12A5.79,5.79,0,1,0,13.78,8,5.8,5.8,0,0,0,8,2.22Z"/><path class="cls-2" d="M8,14.39A6.37,6.37,0,0,1,3.48,3.51a6.37,6.37,0,1,1,9,9A6.33,6.33,0,0,1,8,14.39ZM8,2a6,6,0,1,0,4.24,1.76A6,6,0,0,0,8,2ZM8,14a6,6,0,1,1,6-6A6,6,0,0,1,8,14ZM8,2.41A5.61,5.61,0,1,0,13.59,8,5.61,5.61,0,0,0,8,2.41Z"/><path class="cls-2" d="M4.49,11a.2.2,0,0,1-.17-.3L7.82,5.16a.2.2,0,0,1,.33,0l3.49,5.49a.2.2,0,1,1-.33.21L8,5.63,4.66,10.86A.2.2,0,0,1,4.49,11Z"/><path class="cls-2" d="M11.48,11.14H11.4a.38.38,0,0,1-.24-.17L8,6,4.82,11a.39.39,0,0,1-.53.12.38.38,0,0,1-.12-.53L7.66,5.06a.4.4,0,0,1,.65,0l3.49,5.49a.38.38,0,0,1-.32.59ZM8,5.26,4.48,10.75h0L8,5.29l3.49,5.48Z"/></svg>