<svg id="Layer_1" data-name="Layer 1" xmlns="http://www.w3.org/2000/svg" viewBox="0 0 353.88 64"><defs><style>.cls-1{fill:#ff3638;}.cls-2{fill:#fff;stroke:#fff;stroke-miterlimit:10;stroke-width:1.5px;}</style></defs><title>ads4</title><circle class="cls-1" cx="32" cy="32" r="32"/><path class="cls-2" d="M32,56.79A24.79,24.79,0,0,1,14.47,14.47,24.79,24.79,0,1,1,49.53,49.53,24.63,24.63,0,0,1,32,56.79Zm0-48A23.21,23.21,0,1,0,55.21,32,23.24,23.24,0,0,0,32,8.79Z"/><path class="cls-2" d="M18,43.79a.79.79,0,0,1-.66-1.21l14-22a.79.79,0,0,1,1.33,0l14,22a.79.79,0,1,1-1.33.85L32,22.47l-13.33,21A.79.79,0,0,1,18,43.79Z"/><path class="cls-1" d="M94.16,26.41h4.32V44.6H94.23L94,41.94c-1,2.14-3.87,3.17-5.9,3.21-5.39,0-9.37-3.28-9.37-9.67S82.9,25.93,88.22,26a6.68,6.68,0,0,1,5.79,3ZM83.24,35.49A5.21,5.21,0,0,0,88.62,41c7.08,0,7.08-11,0-11A5.18,5.18,0,0,0,83.24,35.49Z"/><path class="cls-1" d="M121.16,18.81V44.6H117l-.29-2.51A6.62,6.62,0,0,1,110.8,45c-5.35,0-9.37-3.54-9.37-9.52,0-6.27,3.95-9.52,9.26-9.52,1.92,0,4.91,1,6,2.91V18.81ZM105.93,35.49a5.22,5.22,0,1,0,10.44,0,5.19,5.19,0,0,0-5.28-5.31A5,5,0,0,0,105.93,35.49Z"/><path class="cls-1" d="M137,31.24a6.13,6.13,0,0,0-4.5-1.62c-2.14,0-3.32.66-3.32,1.81s1.07,1.84,3.39,2c3.43.22,7.79,1,7.79,5.83,0,3.21-2.62,6-7.82,6-2.88,0-5.76-.48-8.41-3.25l2.21-3.21a10,10,0,0,0,6.27,2.54c1.7,0,3.28-.85,3.28-2.18s-1-1.77-3.62-1.92c-3.43-.26-7.53-1.51-7.53-5.65s4.35-5.68,7.67-5.68a9.77,9.77,0,0,1,7.08,2.4Z"/><path d="M162.56,44.6h-2l-3-8-2.21-7.08-2.29,7.12-3,7.93h-2l-6.49-18.23h2l5.5,16.12,5.57-16.12H156l5.53,16.12L167,26.37h2Z"/><path d="M170.93,35.49a9.16,9.16,0,0,1,9.26-9.41c5.13,0,9.7,3.14,9,10.26H172.77a7.17,7.17,0,0,0,7.42,6.75c2.4,0,5.2-1,6.57-2.77l1.29,1a10,10,0,0,1-7.86,3.5A8.94,8.94,0,0,1,170.93,35.49Zm16.64-.74c0-4.5-3-7-7.38-7a7.29,7.29,0,0,0-7.42,7Z"/><path d="M195.65,18.77V30.36a8.07,8.07,0,0,1,7.56-4.28c5.09,0,9.15,3.39,9.15,9.41s-4,9.41-9.11,9.41a8.59,8.59,0,0,1-7.6-4.32v4h-1.77V18.77Zm0,16.68a7.29,7.29,0,0,0,7.45,7.67c4.1,0,7.45-2.58,7.45-7.64s-3.36-7.67-7.45-7.67A7.3,7.3,0,0,0,195.68,35.45Z"/><path d="M229.29,29.69a7.79,7.79,0,0,0-5.68-1.92c-2.84,0-5.57,1-5.5,3.36s3.25,2.92,5.53,3.32c3.25.55,7.71,1.11,7.53,5.35-.11,4-4.28,5.09-7.49,5.09s-6.38-1.22-8-3.65L217,40.06a8.09,8.09,0,0,0,6.68,3.1c2.21,0,5.57-.59,5.68-3.47.07-2.62-3-3.14-5.94-3.62-3.54-.59-7-1.25-7.08-4.91s3.54-5.13,7.23-5.09a9.55,9.55,0,0,1,6.79,2.44Z"/><path d="M234.16,35.49a9.16,9.16,0,0,1,9.26-9.41c5.13,0,9.7,3.14,9,10.26H236a7.17,7.17,0,0,0,7.42,6.75c2.4,0,5.2-1,6.57-2.77l1.29,1a10,10,0,0,1-7.86,3.5A8.94,8.94,0,0,1,234.16,35.49Zm16.64-.74c0-4.5-3-7-7.38-7a7.29,7.29,0,0,0-7.42,7Z"/><path d="M258.8,26.37l.07,3.25a6.41,6.41,0,0,1,6.05-3.43,7.11,7.11,0,0,1,3.91,1.07L268,28.73a5.86,5.86,0,0,0-3.1-.85,6.06,6.06,0,0,0-6,6.09V44.6h-1.81V26.37Z"/><path d="M271,26.37h2l6.64,16.12,6.64-16.12h2L280.61,44.6h-2Z"/><path d="M293.63,20.43a1.46,1.46,0,0,1-2.92,0A1.46,1.46,0,0,1,293.63,20.43Zm-2.4,5.87V44.6H293V26.3Z"/><path d="M313.15,42.05a9.32,9.32,0,0,1-6.64,2.73c-5.13,0-9.37-3.54-9.37-9.3s4.1-9.3,9.37-9.3a9.48,9.48,0,0,1,6.64,2.73L312,30.06a7.73,7.73,0,0,0-5.46-2.18c-4.13,0-7.6,2.69-7.6,7.6s3.47,7.6,7.6,7.6a7.72,7.72,0,0,0,5.42-2.25Z"/><path d="M316.54,35.49a9.16,9.16,0,0,1,9.26-9.41c5.13,0,9.7,3.14,9,10.26H318.38a7.17,7.17,0,0,0,7.42,6.75c2.4,0,5.2-1,6.57-2.77l1.29,1a10,10,0,0,1-7.86,3.5A8.94,8.94,0,0,1,316.54,35.49Zm16.64-.74c0-4.5-3-7-7.38-7a7.29,7.29,0,0,0-7.42,7Z"/><path d="M352,29.69a7.8,7.8,0,0,0-5.68-1.92c-2.84,0-5.57,1-5.5,3.36s3.25,2.92,5.53,3.32c3.25.55,7.71,1.11,7.53,5.35-.11,4-4.28,5.09-7.49,5.09s-6.38-1.22-8-3.65l1.33-1.18a8.09,8.09,0,0,0,6.68,3.1c2.21,0,5.57-.59,5.68-3.47.07-2.62-3-3.14-5.94-3.62-3.54-.59-7-1.25-7.08-4.91s3.54-5.13,7.23-5.09a9.55,9.55,0,0,1,6.79,2.44Z"/></svg>