<svg id="Layer_1" data-name="Layer 1" xmlns="http://www.w3.org/2000/svg" viewBox="0 0 496.93 64"><defs><style>.cls-1{fill:#ff3638;}.cls-2{fill:#fff;stroke:#fff;stroke-miterlimit:10;stroke-width:1.5px;}</style></defs><title>ads5</title><circle class="cls-1" cx="32" cy="32" r="32"/><path class="cls-2" d="M32,56.79A24.79,24.79,0,0,1,14.47,14.47,24.79,24.79,0,1,1,49.53,49.53,24.63,24.63,0,0,1,32,56.79Zm0-48A23.21,23.21,0,1,0,55.21,32,23.24,23.24,0,0,0,32,8.79Z"/><path class="cls-2" d="M18,43.79a.79.79,0,0,1-.66-1.21l14-22a.79.79,0,0,1,1.33,0l14,22a.79.79,0,1,1-1.33.85L32,22.47l-13.33,21A.79.79,0,0,1,18,43.79Z"/><path class="cls-1" d="M102.95,23.52h6.55V51.11h-6.44l-.33-4c-1.57,3.25-5.88,4.81-9,4.87C85.6,52,79.55,47,79.55,37.29c0-9.52,6.32-14.5,14.38-14.44,3.69,0,7.22,1.73,8.79,4.48ZM86.38,37.29c0,5.26,3.64,8.4,8.17,8.4,10.75,0,10.75-16.73,0-16.73C90,29,86.38,32,86.38,37.29Z"/><path class="cls-1" d="M143.91,12V51.11h-6.38l-.45-3.81c-2.13,3.3-5.54,4.42-8.9,4.42-8.12,0-14.22-5.37-14.22-14.44,0-9.52,6-14.44,14-14.44,2.91,0,7.44,1.57,9.07,4.42V12ZM120.8,37.29a7.92,7.92,0,1,0,15.84,0,7.87,7.87,0,0,0-8-8.06C124.27,29.23,120.8,32.31,120.8,37.29Z"/><path class="cls-1" d="M167.87,30.85A9.31,9.31,0,0,0,161,28.39c-3.25,0-5,1-5,2.74s1.62,2.8,5.15,3C166.35,34.49,173,35.67,173,43c0,4.87-4,9.07-11.87,9.07-4.37,0-8.73-.73-12.76-4.92l3.36-4.87c2,2.18,6.44,3.81,9.52,3.86,2.57.06,5-1.29,5-3.3s-1.57-2.69-5.48-2.91c-5.21-.39-11.42-2.29-11.42-8.56s6.61-8.62,11.64-8.62c4.31,0,7.56.84,10.75,3.64Z"/><path d="M206.7,51.11h-3L199.2,39l-3.36-10.75-3.47,10.8-4.48,12h-3L175,23.46h3l8.34,24.46,8.45-24.46h2l8.4,24.46,8.28-24.46h3Z"/><path d="M219.41,37.29a13.9,13.9,0,0,1,14-14.27c7.78,0,14.72,4.76,13.66,15.56H222.2a10.88,10.88,0,0,0,11.25,10.24c3.64,0,7.89-1.45,10-4.2l2,1.57c-2.69,3.53-7.5,5.32-11.92,5.32C225.67,51.51,219.41,46.08,219.41,37.29Zm25.24-1.12c-.05-6.83-4.53-10.63-11.19-10.63-5.71,0-10.63,3.86-11.25,10.63Z"/><path d="M256.9,11.93V29.51C259.14,25,263.62,23,268.38,23c7.72,0,13.88,5.15,13.88,14.27s-6.1,14.27-13.82,14.27A13,13,0,0,1,256.9,45v6.1h-2.69V11.93Zm.06,25.3c0,6.88,4.81,11.64,11.31,11.64,6.21,0,11.31-3.92,11.31-11.59s-5.09-11.64-11.31-11.64C261.88,25.65,257,30.35,257,37.23Z"/><path d="M307.94,28.5c-2.8-2.46-5.54-2.91-8.62-2.91-4.31-.06-8.45,1.57-8.34,5.09.11,3.69,4.93,4.42,8.4,5,4.93.84,11.7,1.68,11.42,8.12-.17,6.1-6.49,7.72-11.36,7.72s-9.68-1.85-12.09-5.54l2-1.79c2.29,3.3,6.44,4.7,10.13,4.7,3.36,0,8.45-.9,8.62-5.26.11-4-4.48-4.76-9-5.48-5.37-.9-10.69-1.9-10.75-7.44s5.37-7.78,11-7.72a14.49,14.49,0,0,1,10.3,3.69Z"/><path d="M315.33,37.29a13.9,13.9,0,0,1,14-14.27c7.78,0,14.72,4.76,13.66,15.56H318.12a10.88,10.88,0,0,0,11.25,10.24c3.64,0,7.89-1.45,10-4.2l2,1.57c-2.69,3.53-7.5,5.32-11.92,5.32C321.59,51.51,315.33,46.08,315.33,37.29Zm25.24-1.12c-.05-6.83-4.53-10.63-11.19-10.63-5.71,0-10.63,3.86-11.25,10.63Z"/><path d="M352.71,23.46l.11,4.93c1.74-3.75,5.65-5.21,9.18-5.21a10.79,10.79,0,0,1,5.93,1.62L366.7,27a8.89,8.89,0,0,0-4.7-1.29A9.19,9.19,0,0,0,352.88,35V51.11h-2.74V23.46Z"/><path d="M371.18,23.46h3l10.08,24.46,10.08-24.46h3L385.78,51.11h-3Z"/><path d="M405.54,14.45a2.21,2.21,0,0,1-4.42,0A2.21,2.21,0,0,1,405.54,14.45Zm-3.64,8.9V51.11h2.74V23.35Z"/><path d="M435.14,47.25a14.14,14.14,0,0,1-10.07,4.14c-7.78,0-14.22-5.37-14.22-14.1s6.21-14.11,14.22-14.11a14.38,14.38,0,0,1,10.07,4.14l-1.79,1.73a11.72,11.72,0,0,0-8.28-3.3c-6.27,0-11.53,4.09-11.53,11.53s5.26,11.53,11.53,11.53a11.71,11.71,0,0,0,8.23-3.41Z"/><path d="M440.29,37.29a13.9,13.9,0,0,1,14-14.27c7.78,0,14.72,4.76,13.66,15.56H443.09a10.88,10.88,0,0,0,11.25,10.24c3.64,0,7.89-1.45,10-4.2l2,1.57c-2.69,3.53-7.5,5.32-11.92,5.32C446.56,51.51,440.29,46.08,440.29,37.29Zm25.24-1.12c-.05-6.83-4.53-10.63-11.19-10.63-5.71,0-10.63,3.86-11.25,10.63Z"/><path d="M494.07,28.5c-2.8-2.46-5.54-2.91-8.62-2.91-4.31-.06-8.45,1.57-8.34,5.09.11,3.69,4.93,4.42,8.4,5,4.93.84,11.7,1.68,11.42,8.12-.17,6.1-6.49,7.72-11.36,7.72s-9.68-1.85-12.09-5.54l2-1.79c2.29,3.3,6.44,4.7,10.13,4.7,3.36,0,8.45-.9,8.62-5.26.11-4-4.48-4.76-9-5.48-5.37-.9-10.69-1.9-10.75-7.44s5.37-7.78,11-7.72a14.49,14.49,0,0,1,10.3,3.69Z"/></svg>